<svg width="40" height="40" viewBox="0 0 40 40" fill="none" xmlns="http://www.w3.org/2000/svg">
<rect width="40" height="40" rx="20" fill="white"/>
<path d="M20 0C8.97212 0 0 8.97212 0 20C0 31.0279 8.97212 40 20 40C31.0279 40 40 31.0279 40 20C40 8.97212 31.0279 0 20 0ZM30.4087 13.2971L17.4856 28.6817C17.3438 28.8506 17.1674 28.987 16.9684 29.0817C16.7693 29.1764 16.5522 29.2273 16.3317 29.2308H16.3058C16.0901 29.2307 15.8769 29.1853 15.68 29.0975C15.483 29.0097 15.3067 28.8815 15.1625 28.7212L9.62404 22.5673C9.48338 22.4181 9.37396 22.2423 9.30222 22.0502C9.23047 21.8582 9.19785 21.6537 9.20626 21.4488C9.21466 21.244 9.26394 21.0428 9.35119 20.8573C9.43843 20.6717 9.56189 20.5055 9.7143 20.3683C9.86671 20.2312 10.045 20.1259 10.2387 20.0586C10.4324 19.9913 10.6376 19.9635 10.8422 19.9766C11.0468 19.9898 11.2467 20.0437 11.4302 20.1353C11.6137 20.2268 11.777 20.3541 11.9106 20.5096L16.2654 25.3481L28.0529 11.3183C28.3173 11.0126 28.6914 10.8232 29.0943 10.7911C29.4972 10.759 29.8965 10.8867 30.206 11.1467C30.5155 11.4067 30.7102 11.778 30.7482 12.1804C30.7861 12.5828 30.6641 12.9839 30.4087 13.2971Z" fill="#057A55"/>
</svg>
