<svg width="40" height="40" viewBox="0 0 40 40" fill="none" xmlns="http://www.w3.org/2000/svg">
<rect width="40" height="40" rx="20" fill="white"/>
<path d="M20 40C16.3721 40 13.0078 39.0853 9.90698 37.2558C6.89922 35.4884 4.51163 33.1008 2.74419 30.093C0.914729 26.9922 0 23.6279 0 20C0 16.3721 0.914729 13.0078 2.74419 9.90698C4.51163 6.89922 6.89922 4.51163 9.90698 2.74419C13.0078 0.914729 16.3721 0 20 0C23.6279 0 26.9922 0.914729 30.093 2.74419C33.1008 4.51163 35.4884 6.89922 37.2558 9.90698C39.0853 13.0078 40 16.3721 40 20C40 23.6279 39.0853 26.9922 37.2558 30.093C35.4884 33.1008 33.1008 35.4884 30.093 37.2558C26.9922 39.0853 23.6279 40 20 40ZM11.6279 32.093C12.8372 32.9612 14.1628 33.6202 15.6047 34.0698C17.0465 34.5194 18.5116 34.7442 20 34.7442C22.6667 34.7442 25.1473 34.062 27.4419 32.6977C29.6434 31.3953 31.3953 29.6434 32.6977 27.4419C34.062 25.1473 34.7442 22.6667 34.7442 20C34.7442 18.5116 34.5194 17.0465 34.0698 15.6047C33.6202 14.1628 32.9612 12.8372 32.093 11.6279L11.6279 32.093ZM20 5.25581C17.3333 5.25581 14.8527 5.93798 12.5581 7.30233C10.3566 8.60465 8.60465 10.3566 7.30233 12.5581C5.93798 14.8527 5.25581 17.3333 5.25581 20C5.25581 21.4884 5.48062 22.9535 5.93023 24.3953C6.37984 25.8372 7.03876 27.1628 7.90698 28.3721L28.3721 7.90698C27.1628 7.03876 25.8372 6.37984 24.3953 5.93023C22.9535 5.48062 21.4884 5.25581 20 5.25581Z" fill="#A12F2F"/>
</svg>
